<svg xmlns="http://www.w3.org/2000/svg" viewBox="0 0 400 400">
<ellipse cx="200" cy="368" rx="100" ry="12" fill="#000" opacity=".07"/>
<path d="M262 352 C330 352 342 282 302 250" fill="none" stroke="#a9a8a4" stroke-width="20" stroke-linecap="round"/>
<path d="M140 362 C130 290 160 226 200 222 C240 226 270 290 260 362 Z" fill="#a9a8a4"/>
<ellipse cx="200" cy="310" rx="32" ry="48" fill="#e8e7e2"/>
<rect x="170" y="310" width="24" height="54" rx="12" fill="#a9a8a4"/>
<rect x="206" y="310" width="24" height="54" rx="12" fill="#a9a8a4"/>
<path d="M128 140 L138 68 L186 104 Z M272 140 L262 68 L214 104 Z" fill="#a9a8a4" stroke="#a9a8a4" stroke-width="10" stroke-linejoin="round"/>
<path d="M142 122 L147 88 L171 107 Z M258 122 L253 88 L229 107 Z" fill="#ffb3a7"/>
<ellipse cx="200" cy="166" rx="80" ry="70" fill="#a9a8a4"/>
<path d="M186 100 Q200 118 214 100 M176 108 Q200 132 224 108" fill="none" stroke="#7a7975" stroke-width="7" stroke-linecap="round"/>
<path d="M124 150 H146 M126 164 H144 M276 150 H254 M274 164 H256" stroke="#7a7975" stroke-width="6" stroke-linecap="round"/>
<ellipse cx="170" cy="164" rx="9" ry="12" fill="#2a2a28"/><ellipse cx="230" cy="164" rx="9" ry="12" fill="#2a2a28"/>
<circle cx="173" cy="159" r="3" fill="#fff"/><circle cx="233" cy="159" r="3" fill="#fff"/>
<path d="M192 184 L208 184 L200 193 Z" fill="#ff8a80"/>
<path d="M200 193 Q192 204 184 197 M200 193 Q208 204 216 197" fill="none" stroke="#2a2a28" stroke-width="3.5" stroke-linecap="round"/>
<path d="M150 188 L104 180 M150 197 L106 201 M250 188 L296 180 M250 197 L294 201" stroke="#2a2a28" stroke-width="2.5" stroke-linecap="round" opacity=".55"/></svg>
